<svg width="36" height="36" viewBox="0 0 36 36" fill="none" xmlns="http://www.w3.org/2000/svg">
    <circle cx="18" cy="18" r="18" fill="#063C5F"/>
    <path d="M18.8347 24.6151C22.1232 24.205 24.668 21.3997 24.668 18C24.668 14.3181 21.6832 11.3334 18.0013 11.3334C14.3194 11.3334 11.3346 14.3181 11.3346 18C11.3346 21.3997 13.8794 24.205 17.168 24.6151V19.6667H15.5013V18H17.168V16.6215C17.168 15.5071 17.284 15.103 17.5019 14.6956C17.7197 14.2882 18.0395 13.9685 18.4469 13.7506C18.7658 13.5801 19.1614 13.4771 19.8527 13.433C20.1271 13.4154 20.4822 13.4378 20.918 13.5V15.0834H20.5013C19.7369 15.0834 19.4215 15.1195 19.2329 15.2203C19.116 15.2828 19.0342 15.3647 18.9716 15.4816C18.8707 15.6702 18.8347 15.8571 18.8347 16.6215V18H20.918L20.5013 19.6667H18.8347V24.6151ZM18.0013 26.3334C13.3989 26.3334 9.66797 22.6024 9.66797 18C9.66797 13.3976 13.3989 9.66669 18.0013 9.66669C22.6037 9.66669 26.3347 13.3976 26.3347 18C26.3347 22.6024 22.6037 26.3334 18.0013 26.3334Z" fill="white"/>
    </svg>
    