<svg width="36" height="36" viewBox="0 0 36 36" fill="none" xmlns="http://www.w3.org/2000/svg">
    <circle cx="18" cy="18" r="18" fill="white"/>
    <path d="M18.8347 24.6152C22.1232 24.2051 24.668 21.3997 24.668 18.0001C24.668 14.3182 21.6832 11.3334 18.0013 11.3334C14.3194 11.3334 11.3346 14.3182 11.3346 18.0001C11.3346 21.3997 13.8794 24.2051 17.168 24.6152V19.6667H15.5013V18.0001H17.168V16.6216C17.168 15.5072 17.284 15.1031 17.5019 14.6957C17.7197 14.2883 18.0395 13.9685 18.4469 13.7507C18.7658 13.5801 19.1614 13.4772 19.8527 13.433C20.1271 13.4155 20.4822 13.4379 20.918 13.5001V15.0834H20.5013C19.7369 15.0834 19.4215 15.1195 19.2329 15.2204C19.116 15.2829 19.0342 15.3647 18.9716 15.4817C18.8707 15.6702 18.8347 15.8572 18.8347 16.6216V18.0001H20.918L20.5013 19.6667H18.8347V24.6152ZM18.0013 26.3334C13.3989 26.3334 9.66797 22.6024 9.66797 18.0001C9.66797 13.3977 13.3989 9.66675 18.0013 9.66675C22.6037 9.66675 26.3347 13.3977 26.3347 18.0001C26.3347 22.6024 22.6037 26.3334 18.0013 26.3334Z" fill="#063C5F"/>
    </svg>
    