<svg width="36" height="36" viewBox="0 0 36 36" fill="none" xmlns="http://www.w3.org/2000/svg">
    <circle cx="18" cy="18" r="18" fill="white"/>
    <path d="M18.0013 15.5001C16.6202 15.5001 15.5013 16.6193 15.5013 18.0001C15.5013 19.3812 16.6206 20.5001 18.0013 20.5001C19.3824 20.5001 20.5013 19.3808 20.5013 18.0001C20.5013 16.619 19.3821 15.5001 18.0013 15.5001ZM18.0013 13.8334C20.3017 13.8334 22.168 15.6977 22.168 18.0001C22.168 20.3005 20.3037 22.1667 18.0013 22.1667C15.7009 22.1667 13.8346 20.3025 13.8346 18.0001C13.8346 15.6997 15.6989 13.8334 18.0013 13.8334ZM23.418 13.6244C23.418 14.1995 22.9507 14.6661 22.3763 14.6661C21.8012 14.6661 21.3347 14.1987 21.3347 13.6244C21.3347 13.05 21.8019 12.5834 22.3763 12.5834C22.9499 12.5827 23.418 13.05 23.418 13.6244ZM18.0013 11.3334C15.9392 11.3334 15.6031 11.3389 14.644 11.3816C13.9906 11.4123 13.5526 11.5001 13.1456 11.6581C12.784 11.7984 12.5231 11.9659 12.2451 12.2439C11.966 12.5229 11.7989 12.7831 11.6592 13.1449C11.5008 13.5528 11.4129 13.9902 11.3828 14.6427C11.3397 15.5627 11.3346 15.8843 11.3346 18.0001C11.3346 20.0622 11.3401 20.3982 11.3828 21.3572C11.4135 22.0104 11.5015 22.4491 11.6591 22.8551C11.7997 23.2172 11.9676 23.4787 12.2442 23.7554C12.5243 24.0352 12.7853 24.2029 13.1437 24.3412C13.5556 24.5005 13.9934 24.5885 14.6439 24.6186C15.564 24.6617 15.8855 24.6667 18.0013 24.6667C20.0634 24.6667 20.3995 24.6612 21.3585 24.6186C22.0102 24.588 22.4492 24.4997 22.8563 24.3422C23.2175 24.202 23.4798 24.0336 23.7567 23.7572C24.0368 23.4766 24.2042 23.2162 24.3427 22.857C24.5016 22.4466 24.5897 22.0082 24.6198 21.3575C24.6629 20.4374 24.668 20.1158 24.668 18.0001C24.668 15.938 24.6625 15.6019 24.6198 14.6429C24.5892 13.991 24.5009 13.5513 24.3432 13.1444C24.2033 12.7837 24.0352 12.522 23.7575 12.2439C23.478 11.9644 23.2185 11.7975 22.8564 11.6579C22.4488 11.4997 22.0108 11.4117 21.3587 11.3816C20.4387 11.3385 20.1171 11.3334 18.0013 11.3334ZM18.0013 9.66675C20.2652 9.66675 20.5478 9.67508 21.4367 9.71675C22.3235 9.75772 22.9284 9.898 23.4597 10.1042C24.0089 10.3161 24.4728 10.6022 24.936 11.0654C25.3985 11.5286 25.6847 11.9938 25.8972 12.5417C26.1027 13.0723 26.243 13.6779 26.2847 14.5647C26.3242 15.4536 26.3347 15.7362 26.3347 18.0001C26.3347 20.264 26.3263 20.5466 26.2847 21.4355C26.2437 22.3223 26.1027 22.9272 25.8972 23.4584C25.6853 24.0077 25.3985 24.4716 24.936 24.9348C24.4728 25.3973 24.0068 25.6834 23.4597 25.8959C22.9284 26.1015 22.3235 26.2417 21.4367 26.2834C20.5478 26.323 20.2652 26.3334 18.0013 26.3334C15.7374 26.3334 15.4548 26.3251 14.5659 26.2834C13.6791 26.2424 13.0749 26.1015 12.543 25.8959C11.9944 25.6841 11.5298 25.3973 11.0666 24.9348C10.6034 24.4716 10.318 24.0057 10.1055 23.4584C9.89922 22.9272 9.75964 22.3223 9.71797 21.4355C9.67839 20.5466 9.66797 20.264 9.66797 18.0001C9.66797 15.7362 9.6763 15.4536 9.71797 14.5647C9.75894 13.6772 9.89922 13.073 10.1055 12.5417C10.3173 11.9931 10.6034 11.5286 11.0666 11.0654C11.5298 10.6022 11.9951 10.3167 12.543 10.1042C13.0742 9.898 13.6784 9.75841 14.5659 9.71675C15.4548 9.67716 15.7374 9.66675 18.0013 9.66675Z" fill="#063C5F"/>
    </svg>
    