<svg width="36" height="36" viewBox="0 0 36 36" fill="none" xmlns="http://www.w3.org/2000/svg">
    <circle cx="18" cy="18" r="18" fill="#063C5F"/>
    <path d="M18.0013 15.5C16.6202 15.5 15.5013 16.6193 15.5013 18C15.5013 19.3811 16.6206 20.5 18.0013 20.5C19.3824 20.5 20.5013 19.3808 20.5013 18C20.5013 16.6189 19.3821 15.5 18.0013 15.5ZM18.0013 13.8334C20.3017 13.8334 22.168 15.6976 22.168 18C22.168 20.3004 20.3037 22.1667 18.0013 22.1667C15.7009 22.1667 13.8346 20.3024 13.8346 18C13.8346 15.6996 15.6989 13.8334 18.0013 13.8334ZM23.418 13.6243C23.418 14.1994 22.9507 14.666 22.3763 14.666C21.8012 14.666 21.3347 14.1987 21.3347 13.6243C21.3347 13.0499 21.8019 12.5834 22.3763 12.5834C22.9499 12.5826 23.418 13.0499 23.418 13.6243ZM18.0013 11.3334C15.9392 11.3334 15.6031 11.3388 14.644 11.3815C13.9906 11.4122 13.5526 11.5001 13.1456 11.6581C12.784 11.7983 12.5231 11.9658 12.2451 12.2438C11.966 12.5229 11.7989 12.783 11.6592 13.1449C11.5008 13.5528 11.4129 13.9901 11.3828 14.6426C11.3397 15.5627 11.3346 15.8842 11.3346 18C11.3346 20.0621 11.3401 20.3982 11.3828 21.3572C11.4135 22.0104 11.5015 22.449 11.6591 22.855C11.7997 23.2172 11.9676 23.4787 12.2442 23.7554C12.5243 24.0351 12.7853 24.2029 13.1437 24.3412C13.5556 24.5004 13.9934 24.5884 14.6439 24.6185C15.564 24.6616 15.8855 24.6667 18.0013 24.6667C20.0634 24.6667 20.3995 24.6612 21.3585 24.6185C22.0102 24.5879 22.4492 24.4997 22.8563 24.3422C23.2175 24.2019 23.4798 24.0335 23.7567 23.7571C24.0368 23.4765 24.2042 23.2162 24.3427 22.8569C24.5016 22.4465 24.5897 22.0082 24.6198 21.3574C24.6629 20.4374 24.668 20.1158 24.668 18C24.668 15.938 24.6625 15.6019 24.6198 14.6428C24.5892 13.9909 24.5009 13.5513 24.3432 13.1443C24.2033 12.7837 24.0352 12.522 23.7575 12.2438C23.478 11.9643 23.2185 11.7975 22.8564 11.6579C22.4488 11.4996 22.0108 11.4117 21.3587 11.3815C20.4387 11.3384 20.1171 11.3334 18.0013 11.3334ZM18.0013 9.66669C20.2652 9.66669 20.5478 9.67502 21.4367 9.71669C22.3235 9.75766 22.9284 9.89794 23.4597 10.1042C24.0089 10.316 24.4728 10.6021 24.936 11.0653C25.3985 11.5285 25.6847 11.9938 25.8972 12.5417C26.1027 13.0722 26.243 13.6778 26.2847 14.5646C26.3242 15.4535 26.3347 15.7361 26.3347 18C26.3347 20.2639 26.3263 20.5465 26.2847 21.4354C26.2437 22.3223 26.1027 22.9271 25.8972 23.4584C25.6853 24.0077 25.3985 24.4715 24.936 24.9348C24.4728 25.3973 24.0068 25.6834 23.4597 25.8959C22.9284 26.1014 22.3235 26.2417 21.4367 26.2834C20.5478 26.3229 20.2652 26.3334 18.0013 26.3334C15.7374 26.3334 15.4548 26.325 14.5659 26.2834C13.6791 26.2424 13.0749 26.1014 12.543 25.8959C11.9944 25.684 11.5298 25.3973 11.0666 24.9348C10.6034 24.4715 10.318 24.0056 10.1055 23.4584C9.89922 22.9271 9.75964 22.3223 9.71797 21.4354C9.67839 20.5465 9.66797 20.2639 9.66797 18C9.66797 15.7361 9.6763 15.4535 9.71797 14.5646C9.75894 13.6771 9.89922 13.0729 10.1055 12.5417C10.3173 11.9931 10.6034 11.5285 11.0666 11.0653C11.5298 10.6021 11.9951 10.3167 12.543 10.1042C13.0742 9.89794 13.6784 9.75835 14.5659 9.71669C15.4548 9.6771 15.7374 9.66669 18.0013 9.66669Z" fill="white"/>
    </svg>
    