<svg width="34" height="34" viewBox="0 0 34 34" fill="none" xmlns="http://www.w3.org/2000/svg">
    <circle cx="17" cy="17" r="17" fill="#063C5F"/>
    <path d="M17.0003 25.3334C12.398 25.3334 8.66699 21.6024 8.66699 17C8.66699 12.3976 12.398 8.66669 17.0003 8.66669C21.6027 8.66669 25.3337 12.3976 25.3337 17C25.3337 21.6024 21.6027 25.3334 17.0003 25.3334ZM15.092 23.3895C14.2899 21.6883 13.7981 19.8119 13.6898 17.8334H10.3852C10.7153 20.4804 12.5973 22.6456 15.092 23.3895ZM15.3592 17.8334C15.4846 19.8657 16.0652 21.7748 17.0003 23.46C17.9355 21.7748 18.5161 19.8657 18.6414 17.8334H15.3592ZM23.6154 17.8334H20.3109C20.2026 19.8119 19.7108 21.6883 18.9087 23.3895C21.4033 22.6456 23.2853 20.4804 23.6154 17.8334ZM10.3852 16.1667H13.6898C13.7981 14.1882 14.2899 12.3117 15.092 10.6105C12.5973 11.3545 10.7153 13.5196 10.3852 16.1667ZM15.3592 16.1667H18.6414C18.5161 14.1344 17.9355 12.2252 17.0003 10.54C16.0652 12.2252 15.4846 14.1344 15.3592 16.1667ZM18.9087 10.6105C19.7108 12.3117 20.2026 14.1882 20.3109 16.1667H23.6154C23.2853 13.5196 21.4033 11.3545 18.9087 10.6105Z" fill="white"/>
    </svg>
    