<svg width="34" height="34" viewBox="0 0 34 34" fill="none" xmlns="http://www.w3.org/2000/svg">
    <circle cx="17" cy="17" r="17" fill="#063C5F"/>
    <path d="M24.5 20.6833V23.6301C24.5 24.0676 24.1617 24.4306 23.7254 24.4614C23.3609 24.4872 23.0636 24.5 22.8333 24.5C15.4695 24.5 9.5 18.5305 9.5 11.1667C9.5 10.9364 9.51288 10.6391 9.53863 10.2746C9.56948 9.83823 9.93245 9.5 10.3699 9.5H13.3168C13.5307 9.5 13.7098 9.66202 13.7313 9.87483C13.7506 10.0659 13.7685 10.2193 13.7851 10.335C13.9536 11.5123 14.2979 12.6328 14.7906 13.6692C14.8697 13.8355 14.8181 14.0347 14.6682 14.1417L12.8696 15.4265C13.9646 17.9843 16.0158 20.0354 18.5735 21.1304L19.8559 19.3349C19.9643 19.1833 20.1658 19.1311 20.3342 19.211C21.3705 19.7033 22.4909 20.0472 23.668 20.2153C23.783 20.2318 23.9354 20.2496 24.1252 20.2688C24.338 20.2902 24.5 20.4694 24.5 20.6833Z" fill="white"/>
    </svg>
    