<svg width="36" height="36" viewBox="0 0 36 36" fill="none" xmlns="http://www.w3.org/2000/svg">
    <circle cx="18" cy="18" r="18" fill="white"/>
    <g clip-path="url(#clip0_33_864)">
    <path d="M13.6489 23.9531L14.3132 24.3405C15.4231 24.9877 16.6844 25.3333 18.0007 25.3333C22.0508 25.3333 25.334 22.05 25.334 17.9999C25.334 13.9498 22.0508 10.6666 18.0007 10.6666C13.9506 10.6666 10.6673 13.9498 10.6673 17.9999C10.6673 19.3165 11.0131 20.5783 11.6607 21.6884L12.0479 22.3521L11.4488 24.5535L13.6489 23.9531ZM8.83782 27.1666L10.0771 22.6121C9.28678 21.2574 8.83398 19.6815 8.83398 17.9999C8.83398 12.9373 12.938 8.83325 18.0007 8.83325C23.0632 8.83325 27.1673 12.9373 27.1673 17.9999C27.1673 23.0625 23.0632 27.1666 18.0007 27.1666C16.3196 27.1666 14.7442 26.7141 13.3897 25.9242L8.83782 27.1666ZM14.6927 13.6992C14.8154 13.6906 14.9386 13.6893 15.0615 13.6953C15.1111 13.6985 15.1605 13.7043 15.21 13.71C15.3559 13.7268 15.5165 13.8157 15.5705 13.9381C15.8439 14.5582 16.1093 15.1818 16.3664 15.8087C16.4232 15.9472 16.389 16.1266 16.281 16.3001C16.2262 16.3892 16.1401 16.514 16.0404 16.6417C15.9367 16.7743 15.7136 17.0183 15.7136 17.0183C15.7136 17.0183 15.6232 17.1266 15.6573 17.2615C15.6705 17.3124 15.7129 17.3867 15.7512 17.4491C15.7725 17.4837 15.7922 17.5145 15.805 17.5359C16.0396 17.9276 16.355 18.3247 16.7402 18.6981C16.8505 18.805 16.9576 18.9142 17.0727 19.0156C17.502 19.3941 17.9877 19.7034 18.5122 19.9324L18.5168 19.9345C18.5943 19.9679 18.6341 19.9862 18.7475 20.0343C18.8047 20.0585 18.8632 20.0794 18.9232 20.0952C18.9449 20.1009 18.9672 20.1041 18.9896 20.1057C19.1378 20.1146 19.2235 20.0195 19.2601 19.9758C19.9233 19.1723 19.984 19.1199 19.9886 19.1203V19.1217C20.0757 19.0299 20.2128 18.998 20.3351 19.0055C20.3909 19.0089 20.4464 19.0196 20.4972 19.0428C20.9847 19.2652 21.7817 19.6121 21.7817 19.6121L22.3148 19.8517C22.4041 19.8948 22.4856 19.9962 22.4895 20.0949C22.4919 20.1562 22.4985 20.2552 22.4766 20.4363C22.4479 20.6735 22.3757 20.959 22.3041 21.1086C22.2536 21.2136 22.1884 21.3067 22.1125 21.3855C22.0095 21.4924 21.9331 21.5573 21.8093 21.6495C21.734 21.7056 21.6949 21.732 21.6949 21.732C21.5676 21.8123 21.4958 21.8525 21.3441 21.9332C21.1082 22.0589 20.8475 22.1312 20.5804 22.1449C20.4102 22.1536 20.2405 22.1659 20.0704 22.1567C20.0629 22.1563 19.5496 22.0774 19.5496 22.0774C18.2462 21.7346 17.0407 21.0924 16.0292 20.2018C15.8224 20.0197 15.6306 19.8227 15.4349 19.6278C14.6199 18.8165 14.0029 17.9416 13.6288 17.1141C13.4443 16.706 13.3275 16.2689 13.3257 15.8192C13.3223 15.2628 13.5044 14.7212 13.8433 14.28C13.9101 14.193 13.9735 14.1028 14.0829 13.9995C14.1988 13.8901 14.2725 13.8313 14.3519 13.7907C14.4578 13.7365 14.5741 13.7076 14.6927 13.6992Z" fill="#063C5F"/>
    </g>
    <defs>
    <clipPath id="clip0_33_864">
    <rect width="20" height="20" fill="white" transform="translate(8 8)"/>
    </clipPath>
    </defs>
    </svg>
    