<svg width="36" height="36" viewBox="0 0 36 36" fill="none" xmlns="http://www.w3.org/2000/svg">
    <circle cx="18" cy="18" r="18" fill="#08D472"/>
    <g clip-path="url(#clip0_33_885)">
        <path d="M13.6489 23.9532L14.3132 24.3406C15.4231 24.9877 16.6844 25.3333 18.0007 25.3333C22.0508 25.3333 25.334 22.0501 25.334 18C25.334 13.9499 22.0508 10.6666 18.0007 10.6666C13.9506 10.6666 10.6673 13.9499 10.6673 18C10.6673 19.3166 11.0131 20.5784 11.6607 21.6885L12.0479 22.3521L11.4488 24.5536L13.6489 23.9532ZM8.83782 27.1666L10.0771 22.6122C9.28678 21.2574 8.83398 19.6816 8.83398 18C8.83398 12.9374 12.938 8.83331 18.0007 8.83331C23.0632 8.83331 27.1673 12.9374 27.1673 18C27.1673 23.0625 23.0632 27.1666 18.0007 27.1666C16.3196 27.1666 14.7442 26.7142 13.3897 25.9243L8.83782 27.1666ZM14.6927 13.6993C14.8154 13.6907 14.9386 13.6893 15.0615 13.6953C15.1111 13.6986 15.1605 13.7043 15.21 13.71C15.3559 13.7269 15.5165 13.8158 15.5705 13.9382C15.8439 14.5582 16.1093 15.1818 16.3664 15.8088C16.4232 15.9472 16.389 16.1266 16.281 16.3002C16.2262 16.3892 16.1401 16.5141 16.0404 16.6418C15.9367 16.7744 15.7136 17.0183 15.7136 17.0183C15.7136 17.0183 15.6232 17.1267 15.6573 17.2615C15.6705 17.3125 15.7129 17.3867 15.7512 17.4492C15.7725 17.4837 15.7922 17.5146 15.805 17.536C16.0396 17.9277 16.355 18.3248 16.7402 18.6981C16.8505 18.8051 16.9576 18.9143 17.0727 19.0156C17.502 19.3941 17.9877 19.7034 18.5122 19.9325L18.5168 19.9346C18.5943 19.968 18.6341 19.9862 18.7475 20.0343C18.8047 20.0585 18.8632 20.0794 18.9232 20.0953C18.9449 20.101 18.9672 20.1042 18.9896 20.1057C19.1378 20.1146 19.2235 20.0196 19.2601 19.9759C19.9233 19.1724 19.984 19.12 19.9886 19.1203V19.1218C20.0757 19.0299 20.2128 18.998 20.3351 19.0056C20.3909 19.009 20.4464 19.0197 20.4972 19.0429C20.9847 19.2653 21.7817 19.6121 21.7817 19.6121L22.3148 19.8517C22.4041 19.8948 22.4856 19.9963 22.4895 20.0949C22.4919 20.1563 22.4985 20.2553 22.4766 20.4364C22.4479 20.6735 22.3757 20.9591 22.3041 21.1087C22.2536 21.2136 22.1884 21.3068 22.1125 21.3856C22.0095 21.4925 21.9331 21.5574 21.8093 21.6496C21.734 21.7057 21.6949 21.7321 21.6949 21.7321C21.5676 21.8124 21.4958 21.8525 21.3441 21.9333C21.1082 22.059 20.8475 22.1312 20.5804 22.145C20.4102 22.1537 20.2405 22.166 20.0704 22.1568C20.0629 22.1563 19.5496 22.0775 19.5496 22.0775C18.2462 21.7347 17.0407 21.0924 16.0292 20.2018C15.8224 20.0198 15.6306 19.8228 15.4349 19.6279C14.6199 18.8165 14.0029 17.9417 13.6288 17.1141C13.4443 16.706 13.3275 16.2689 13.3257 15.8192C13.3223 15.2629 13.5044 14.7212 13.8433 14.28C13.9101 14.193 13.9735 14.1028 14.0829 13.9995C14.1988 13.8901 14.2725 13.8314 14.3519 13.7907C14.4578 13.7366 14.5741 13.7076 14.6927 13.6993Z" fill="white"/>
    </g>
    <defs>
        <clipPath id="clip0_33_885">
            <rect width="20" height="20" fill="white" transform="translate(8 8)"/>
        </clipPath>
    </defs>
</svg>